<?xml version="1.0" encoding="utf-8"?>
<svg xmlns="http://www.w3.org/2000/svg" xmlns:xlink="http://www.w3.org/1999/xlink" width="500" height="200" viewBox="0 0 2000 800">
<defs>
  <clipPath id="clip320">
    <rect x="0" y="0" width="2000" height="800"/>
  </clipPath>
</defs>
<path clip-path="url(#clip320)" d="
M0 800 L2000 800 L2000 0 L0 0  Z
  " fill="#ffffff" fill-rule="evenodd" fill-opacity="1"/>
<defs>
  <clipPath id="clip321">
    <rect x="400" y="0" width="1401" height="800"/>
  </clipPath>
</defs>
<path clip-path="url(#clip320)" d="
M47.2441 670.505 L1952.76 670.505 L1952.76 47.2441 L47.2441 47.2441  Z
  " fill="#ffffff" fill-rule="evenodd" fill-opacity="1"/>
<defs>
  <clipPath id="clip322">
    <rect x="47" y="47" width="1907" height="624"/>
  </clipPath>
</defs>
<polyline clip-path="url(#clip322)" style="stroke:#000000; stroke-linecap:butt; stroke-linejoin:round; stroke-width:2; stroke-opacity:0.1; fill:none" points="
  184.664,670.505 184.664,47.2441 
  "/>
<polyline clip-path="url(#clip322)" style="stroke:#000000; stroke-linecap:butt; stroke-linejoin:round; stroke-width:2; stroke-opacity:0.1; fill:none" points="
  266.198,670.505 266.198,47.2441 
  "/>
<polyline clip-path="url(#clip322)" style="stroke:#000000; stroke-linecap:butt; stroke-linejoin:round; stroke-width:2; stroke-opacity:0.1; fill:none" points="
  347.731,670.505 347.731,47.2441 
  "/>
<polyline clip-path="url(#clip322)" style="stroke:#000000; stroke-linecap:butt; stroke-linejoin:round; stroke-width:2; stroke-opacity:0.1; fill:none" points="
  429.265,670.505 429.265,47.2441 
  "/>
<polyline clip-path="url(#clip322)" style="stroke:#000000; stroke-linecap:butt; stroke-linejoin:round; stroke-width:2; stroke-opacity:0.1; fill:none" points="
  510.798,670.505 510.798,47.2441 
  "/>
<polyline clip-path="url(#clip322)" style="stroke:#000000; stroke-linecap:butt; stroke-linejoin:round; stroke-width:2; stroke-opacity:0.1; fill:none" points="
  592.332,670.505 592.332,47.2441 
  "/>
<polyline clip-path="url(#clip322)" style="stroke:#000000; stroke-linecap:butt; stroke-linejoin:round; stroke-width:2; stroke-opacity:0.1; fill:none" points="
  673.866,670.505 673.866,47.2441 
  "/>
<polyline clip-path="url(#clip322)" style="stroke:#000000; stroke-linecap:butt; stroke-linejoin:round; stroke-width:2; stroke-opacity:0.1; fill:none" points="
  755.399,670.505 755.399,47.2441 
  "/>
<polyline clip-path="url(#clip322)" style="stroke:#000000; stroke-linecap:butt; stroke-linejoin:round; stroke-width:2; stroke-opacity:0.1; fill:none" points="
  836.933,670.505 836.933,47.2441 
  "/>
<polyline clip-path="url(#clip322)" style="stroke:#000000; stroke-linecap:butt; stroke-linejoin:round; stroke-width:2; stroke-opacity:0.1; fill:none" points="
  918.466,670.505 918.466,47.2441 
  "/>
<polyline clip-path="url(#clip322)" style="stroke:#000000; stroke-linecap:butt; stroke-linejoin:round; stroke-width:2; stroke-opacity:0.1; fill:none" points="
  1000,670.505 1000,47.2441 
  "/>
<polyline clip-path="url(#clip322)" style="stroke:#000000; stroke-linecap:butt; stroke-linejoin:round; stroke-width:2; stroke-opacity:0.1; fill:none" points="
  1081.53,670.505 1081.53,47.2441 
  "/>
<polyline clip-path="url(#clip322)" style="stroke:#000000; stroke-linecap:butt; stroke-linejoin:round; stroke-width:2; stroke-opacity:0.1; fill:none" points="
  1163.07,670.505 1163.07,47.2441 
  "/>
<polyline clip-path="url(#clip322)" style="stroke:#000000; stroke-linecap:butt; stroke-linejoin:round; stroke-width:2; stroke-opacity:0.1; fill:none" points="
  1244.6,670.505 1244.6,47.2441 
  "/>
<polyline clip-path="url(#clip322)" style="stroke:#000000; stroke-linecap:butt; stroke-linejoin:round; stroke-width:2; stroke-opacity:0.1; fill:none" points="
  1326.13,670.505 1326.13,47.2441 
  "/>
<polyline clip-path="url(#clip322)" style="stroke:#000000; stroke-linecap:butt; stroke-linejoin:round; stroke-width:2; stroke-opacity:0.1; fill:none" points="
  1407.67,670.505 1407.67,47.2441 
  "/>
<polyline clip-path="url(#clip322)" style="stroke:#000000; stroke-linecap:butt; stroke-linejoin:round; stroke-width:2; stroke-opacity:0.1; fill:none" points="
  1489.2,670.505 1489.2,47.2441 
  "/>
<polyline clip-path="url(#clip322)" style="stroke:#000000; stroke-linecap:butt; stroke-linejoin:round; stroke-width:2; stroke-opacity:0.1; fill:none" points="
  1570.74,670.505 1570.74,47.2441 
  "/>
<polyline clip-path="url(#clip322)" style="stroke:#000000; stroke-linecap:butt; stroke-linejoin:round; stroke-width:2; stroke-opacity:0.1; fill:none" points="
  1652.27,670.505 1652.27,47.2441 
  "/>
<polyline clip-path="url(#clip322)" style="stroke:#000000; stroke-linecap:butt; stroke-linejoin:round; stroke-width:2; stroke-opacity:0.1; fill:none" points="
  1733.8,670.505 1733.8,47.2441 
  "/>
<polyline clip-path="url(#clip322)" style="stroke:#000000; stroke-linecap:butt; stroke-linejoin:round; stroke-width:2; stroke-opacity:0.1; fill:none" points="
  1815.34,670.505 1815.34,47.2441 
  "/>
<polyline clip-path="url(#clip320)" style="stroke:#000000; stroke-linecap:butt; stroke-linejoin:round; stroke-width:4; stroke-opacity:1; fill:none" points="
  47.2441,670.505 1952.76,670.505 
  "/>
<polyline clip-path="url(#clip320)" style="stroke:#000000; stroke-linecap:butt; stroke-linejoin:round; stroke-width:4; stroke-opacity:1; fill:none" points="
  184.664,670.505 184.664,663.026 
  "/>
<polyline clip-path="url(#clip320)" style="stroke:#000000; stroke-linecap:butt; stroke-linejoin:round; stroke-width:4; stroke-opacity:1; fill:none" points="
  266.198,670.505 266.198,663.026 
  "/>
<polyline clip-path="url(#clip320)" style="stroke:#000000; stroke-linecap:butt; stroke-linejoin:round; stroke-width:4; stroke-opacity:1; fill:none" points="
  347.731,670.505 347.731,663.026 
  "/>
<polyline clip-path="url(#clip320)" style="stroke:#000000; stroke-linecap:butt; stroke-linejoin:round; stroke-width:4; stroke-opacity:1; fill:none" points="
  429.265,670.505 429.265,663.026 
  "/>
<polyline clip-path="url(#clip320)" style="stroke:#000000; stroke-linecap:butt; stroke-linejoin:round; stroke-width:4; stroke-opacity:1; fill:none" points="
  510.798,670.505 510.798,663.026 
  "/>
<polyline clip-path="url(#clip320)" style="stroke:#000000; stroke-linecap:butt; stroke-linejoin:round; stroke-width:4; stroke-opacity:1; fill:none" points="
  592.332,670.505 592.332,663.026 
  "/>
<polyline clip-path="url(#clip320)" style="stroke:#000000; stroke-linecap:butt; stroke-linejoin:round; stroke-width:4; stroke-opacity:1; fill:none" points="
  673.866,670.505 673.866,663.026 
  "/>
<polyline clip-path="url(#clip320)" style="stroke:#000000; stroke-linecap:butt; stroke-linejoin:round; stroke-width:4; stroke-opacity:1; fill:none" points="
  755.399,670.505 755.399,663.026 
  "/>
<polyline clip-path="url(#clip320)" style="stroke:#000000; stroke-linecap:butt; stroke-linejoin:round; stroke-width:4; stroke-opacity:1; fill:none" points="
  836.933,670.505 836.933,663.026 
  "/>
<polyline clip-path="url(#clip320)" style="stroke:#000000; stroke-linecap:butt; stroke-linejoin:round; stroke-width:4; stroke-opacity:1; fill:none" points="
  918.466,670.505 918.466,663.026 
  "/>
<polyline clip-path="url(#clip320)" style="stroke:#000000; stroke-linecap:butt; stroke-linejoin:round; stroke-width:4; stroke-opacity:1; fill:none" points="
  1000,670.505 1000,663.026 
  "/>
<polyline clip-path="url(#clip320)" style="stroke:#000000; stroke-linecap:butt; stroke-linejoin:round; stroke-width:4; stroke-opacity:1; fill:none" points="
  1081.53,670.505 1081.53,663.026 
  "/>
<polyline clip-path="url(#clip320)" style="stroke:#000000; stroke-linecap:butt; stroke-linejoin:round; stroke-width:4; stroke-opacity:1; fill:none" points="
  1163.07,670.505 1163.07,663.026 
  "/>
<polyline clip-path="url(#clip320)" style="stroke:#000000; stroke-linecap:butt; stroke-linejoin:round; stroke-width:4; stroke-opacity:1; fill:none" points="
  1244.6,670.505 1244.6,663.026 
  "/>
<polyline clip-path="url(#clip320)" style="stroke:#000000; stroke-linecap:butt; stroke-linejoin:round; stroke-width:4; stroke-opacity:1; fill:none" points="
  1326.13,670.505 1326.13,663.026 
  "/>
<polyline clip-path="url(#clip320)" style="stroke:#000000; stroke-linecap:butt; stroke-linejoin:round; stroke-width:4; stroke-opacity:1; fill:none" points="
  1407.67,670.505 1407.67,663.026 
  "/>
<polyline clip-path="url(#clip320)" style="stroke:#000000; stroke-linecap:butt; stroke-linejoin:round; stroke-width:4; stroke-opacity:1; fill:none" points="
  1489.2,670.505 1489.2,663.026 
  "/>
<polyline clip-path="url(#clip320)" style="stroke:#000000; stroke-linecap:butt; stroke-linejoin:round; stroke-width:4; stroke-opacity:1; fill:none" points="
  1570.74,670.505 1570.74,663.026 
  "/>
<polyline clip-path="url(#clip320)" style="stroke:#000000; stroke-linecap:butt; stroke-linejoin:round; stroke-width:4; stroke-opacity:1; fill:none" points="
  1652.27,670.505 1652.27,663.026 
  "/>
<polyline clip-path="url(#clip320)" style="stroke:#000000; stroke-linecap:butt; stroke-linejoin:round; stroke-width:4; stroke-opacity:1; fill:none" points="
  1733.8,670.505 1733.8,663.026 
  "/>
<polyline clip-path="url(#clip320)" style="stroke:#000000; stroke-linecap:butt; stroke-linejoin:round; stroke-width:4; stroke-opacity:1; fill:none" points="
  1815.34,670.505 1815.34,663.026 
  "/>
<g clip-path="url(#clip320)">
<text style="fill:#000000; fill-opacity:1; font-family:Arial,Helvetica Neue,Helvetica,sans-serif; font-size:48px; text-anchor:middle;" transform="rotate(0, 184.664, 728.505)" x="184.664" y="728.505">0</text>
</g>
<g clip-path="url(#clip320)">
<text style="fill:#000000; fill-opacity:1; font-family:Arial,Helvetica Neue,Helvetica,sans-serif; font-size:48px; text-anchor:middle;" transform="rotate(0, 347.731, 728.505)" x="347.731" y="728.505">1</text>
</g>
<g clip-path="url(#clip320)">
<text style="fill:#000000; fill-opacity:1; font-family:Arial,Helvetica Neue,Helvetica,sans-serif; font-size:48px; text-anchor:middle;" transform="rotate(0, 510.798, 728.505)" x="510.798" y="728.505">2</text>
</g>
<g clip-path="url(#clip320)">
<text style="fill:#000000; fill-opacity:1; font-family:Arial,Helvetica Neue,Helvetica,sans-serif; font-size:48px; text-anchor:middle;" transform="rotate(0, 673.866, 728.505)" x="673.866" y="728.505">3</text>
</g>
<g clip-path="url(#clip320)">
<text style="fill:#000000; fill-opacity:1; font-family:Arial,Helvetica Neue,Helvetica,sans-serif; font-size:48px; text-anchor:middle;" transform="rotate(0, 836.933, 728.505)" x="836.933" y="728.505">4</text>
</g>
<g clip-path="url(#clip320)">
<text style="fill:#000000; fill-opacity:1; font-family:Arial,Helvetica Neue,Helvetica,sans-serif; font-size:48px; text-anchor:middle;" transform="rotate(0, 1000, 728.505)" x="1000" y="728.505">5</text>
</g>
<g clip-path="url(#clip320)">
<text style="fill:#000000; fill-opacity:1; font-family:Arial,Helvetica Neue,Helvetica,sans-serif; font-size:48px; text-anchor:middle;" transform="rotate(0, 1163.07, 728.505)" x="1163.07" y="728.505">6</text>
</g>
<g clip-path="url(#clip320)">
<text style="fill:#000000; fill-opacity:1; font-family:Arial,Helvetica Neue,Helvetica,sans-serif; font-size:48px; text-anchor:middle;" transform="rotate(0, 1326.13, 728.505)" x="1326.13" y="728.505">7</text>
</g>
<g clip-path="url(#clip320)">
<text style="fill:#000000; fill-opacity:1; font-family:Arial,Helvetica Neue,Helvetica,sans-serif; font-size:48px; text-anchor:middle;" transform="rotate(0, 1489.2, 728.505)" x="1489.2" y="728.505">8</text>
</g>
<g clip-path="url(#clip320)">
<text style="fill:#000000; fill-opacity:1; font-family:Arial,Helvetica Neue,Helvetica,sans-serif; font-size:48px; text-anchor:middle;" transform="rotate(0, 1652.27, 728.505)" x="1652.27" y="728.505">9</text>
</g>
<g clip-path="url(#clip320)">
<text style="fill:#000000; fill-opacity:1; font-family:Arial,Helvetica Neue,Helvetica,sans-serif; font-size:48px; text-anchor:middle;" transform="rotate(0, 1815.34, 728.505)" x="1815.34" y="728.505">10</text>
</g>
<g clip-path="url(#clip320)">
<text style="fill:#000000; fill-opacity:1; font-family:Arial,Helvetica Neue,Helvetica,sans-serif; font-size:53px; text-anchor:middle;" transform="rotate(0, 1000, 799.592)" x="1000" y="799.592">wavenumber</text>
</g>
<polyline clip-path="url(#clip320)" style="stroke:#000000; stroke-linecap:butt; stroke-linejoin:round; stroke-width:4; stroke-opacity:1; fill:none" points="
  47.2441,670.505 47.2441,47.2441 
  "/>
<path clip-path="url(#clip322)" d="
M152.051 643.14 L152.051 646.329 L217.278 646.329 L217.278 643.14 L152.051 643.14 L152.051 643.14  Z
  " fill="#4100eb" fill-rule="evenodd" fill-opacity="1"/>
<polyline clip-path="url(#clip322)" style="stroke:#000000; stroke-linecap:butt; stroke-linejoin:round; stroke-width:4; stroke-opacity:1; fill:none" points="
  152.051,643.14 152.051,646.329 217.278,646.329 217.278,643.14 152.051,643.14 
  "/>
<path clip-path="url(#clip322)" d="
M233.584 646.329 L233.584 646.329 L298.811 646.329 L298.811 646.329 L233.584 646.329 L233.584 646.329  Z
  " fill="#4100eb" fill-rule="evenodd" fill-opacity="1"/>
<polyline clip-path="url(#clip322)" style="stroke:#000000; stroke-linecap:butt; stroke-linejoin:round; stroke-width:4; stroke-opacity:1; fill:none" points="
  233.584,646.329 233.584,646.329 298.811,646.329 298.811,646.329 233.584,646.329 
  "/>
<path clip-path="url(#clip322)" d="
M315.118 641.008 L315.118 646.329 L380.345 646.329 L380.345 641.008 L315.118 641.008 L315.118 641.008  Z
  " fill="#4100eb" fill-rule="evenodd" fill-opacity="1"/>
<polyline clip-path="url(#clip322)" style="stroke:#000000; stroke-linecap:butt; stroke-linejoin:round; stroke-width:4; stroke-opacity:1; fill:none" points="
  315.118,641.008 315.118,646.329 380.345,646.329 380.345,641.008 315.118,641.008 
  "/>
<path clip-path="url(#clip322)" d="
M396.651 646.329 L396.651 646.329 L461.878 646.329 L461.878 646.329 L396.651 646.329 L396.651 646.329  Z
  " fill="#4100eb" fill-rule="evenodd" fill-opacity="1"/>
<polyline clip-path="url(#clip322)" style="stroke:#000000; stroke-linecap:butt; stroke-linejoin:round; stroke-width:4; stroke-opacity:1; fill:none" points="
  396.651,646.329 396.651,646.329 461.878,646.329 461.878,646.329 396.651,646.329 
  "/>
<path clip-path="url(#clip322)" d="
M478.185 64.8836 L478.185 646.329 L543.412 646.329 L543.412 64.8836 L478.185 64.8836 L478.185 64.8836  Z
  " fill="#4100eb" fill-rule="evenodd" fill-opacity="1"/>
<polyline clip-path="url(#clip322)" style="stroke:#000000; stroke-linecap:butt; stroke-linejoin:round; stroke-width:4; stroke-opacity:1; fill:none" points="
  478.185,64.8836 478.185,646.329 543.412,646.329 543.412,64.8836 478.185,64.8836 
  "/>
<path clip-path="url(#clip322)" d="
M559.719 646.329 L559.719 646.329 L624.945 646.329 L624.945 646.329 L559.719 646.329 L559.719 646.329  Z
  " fill="#4100eb" fill-rule="evenodd" fill-opacity="1"/>
<polyline clip-path="url(#clip322)" style="stroke:#000000; stroke-linecap:butt; stroke-linejoin:round; stroke-width:4; stroke-opacity:1; fill:none" points="
  559.719,646.329 559.719,646.329 624.945,646.329 559.719,646.329 
  "/>
<path clip-path="url(#clip322)" d="
M641.252 645.143 L641.252 646.329 L706.479 646.329 L706.479 645.143 L641.252 645.143 L641.252 645.143  Z
  " fill="#4100eb" fill-rule="evenodd" fill-opacity="1"/>
<polyline clip-path="url(#clip322)" style="stroke:#000000; stroke-linecap:butt; stroke-linejoin:round; stroke-width:4; stroke-opacity:1; fill:none" points="
  641.252,645.143 641.252,646.329 706.479,646.329 706.479,645.143 641.252,645.143 
  "/>
<path clip-path="url(#clip322)" d="
M722.786 646.329 L722.786 646.329 L788.013 646.329 L788.013 646.329 L722.786 646.329 L722.786 646.329  Z
  " fill="#4100eb" fill-rule="evenodd" fill-opacity="1"/>
<polyline clip-path="url(#clip322)" style="stroke:#000000; stroke-linecap:butt; stroke-linejoin:round; stroke-width:4; stroke-opacity:1; fill:none" points="
  722.786,646.329 722.786,646.329 788.013,646.329 788.013,646.329 722.786,646.329 
  "/>
<path clip-path="url(#clip322)" d="
M804.319 643.039 L804.319 646.329 L869.546 646.329 L869.546 643.039 L804.319 643.039 L804.319 643.039  Z
  " fill="#4100eb" fill-rule="evenodd" fill-opacity="1"/>
<polyline clip-path="url(#clip322)" style="stroke:#000000; stroke-linecap:butt; stroke-linejoin:round; stroke-width:4; stroke-opacity:1; fill:none" points="
  804.319,643.039 804.319,646.329 869.546,646.329 869.546,643.039 804.319,643.039 
  "/>
<path clip-path="url(#clip322)" d="
M885.853 646.329 L885.853 646.329 L951.08 646.329 L951.08 646.329 L885.853 646.329 L885.853 646.329  Z
  " fill="#4100eb" fill-rule="evenodd" fill-opacity="1"/>
<polyline clip-path="url(#clip322)" style="stroke:#000000; stroke-linecap:butt; stroke-linejoin:round; stroke-width:4; stroke-opacity:1; fill:none" points="
  885.853,646.329 885.853,646.329 951.08,646.329 951.08,646.329 885.853,646.329 
  "/>
<path clip-path="url(#clip322)" d="
M967.387 639.447 L967.387 646.329 L1032.61 646.329 L1032.61 639.447 L967.387 639.447 L967.387 639.447  Z
  " fill="#4100eb" fill-rule="evenodd" fill-opacity="1"/>
<polyline clip-path="url(#clip322)" style="stroke:#000000; stroke-linecap:butt; stroke-linejoin:round; stroke-width:4; stroke-opacity:1; fill:none" points="
  967.387,639.447 967.387,646.329 1032.61,646.329 1032.61,639.447 967.387,639.447 
  "/>
<path clip-path="url(#clip322)" d="
M1048.92 646.329 L1048.92 646.329 L1114.15 646.329 L1114.15 646.329 L1048.92 646.329 L1048.92 646.329  Z
  " fill="#4100eb" fill-rule="evenodd" fill-opacity="1"/>
<polyline clip-path="url(#clip322)" style="stroke:#000000; stroke-linecap:butt; stroke-linejoin:round; stroke-width:4; stroke-opacity:1; fill:none" points="
  1048.92,646.329 1048.92,646.329 1114.15,646.329 1114.15,646.329 1048.92,646.329 
  "/>
<path clip-path="url(#clip322)" d="
M1130.45 67.8177 L1130.45 646.329 L1195.68 646.329 L1195.68 67.8177 L1130.45 67.8177 L1130.45 67.8177  Z
  " fill="#4100eb" fill-rule="evenodd" fill-opacity="1"/>
<polyline clip-path="url(#clip322)" style="stroke:#000000; stroke-linecap:butt; stroke-linejoin:round; stroke-width:4; stroke-opacity:1; fill:none" points="
  1130.45,67.8177 1130.45,646.329 1195.68,646.329 1195.68,67.8177 1130.45,67.8177 
  "/>
<path clip-path="url(#clip322)" d="
M1211.99 646.329 L1211.99 646.329 L1277.21 646.329 L1277.21 646.329 L1211.99 646.329 L1211.99 646.329  Z
  " fill="#4100eb" fill-rule="evenodd" fill-opacity="1"/>
<polyline clip-path="url(#clip322)" style="stroke:#000000; stroke-linecap:butt; stroke-linejoin:round; stroke-width:4; stroke-opacity:1; fill:none" points="
  1211.99,646.329 1211.99,646.329 1277.21,646.329 1277.21,646.329 1211.99,646.329 
  "/>
<path clip-path="url(#clip322)" d="
M1293.52 652.866 L1293.52 646.329 L1358.75 646.329 L1358.75 652.866 L1293.52 652.866 L1293.52 652.866  Z
  " fill="#4100eb" fill-rule="evenodd" fill-opacity="1"/>
<polyline clip-path="url(#clip322)" style="stroke:#000000; stroke-linecap:butt; stroke-linejoin:round; stroke-width:4; stroke-opacity:1; fill:none" points="
  1293.52,652.866 1293.52,646.329 1358.75,646.329 1358.75,652.866 1293.52,652.866 
  "/>
<path clip-path="url(#clip322)" d="
M1375.05 646.329 L1375.05 646.329 L1440.28 646.329 L1440.28 646.329 L1375.05 646.329 L1375.05 646.329  Z
  " fill="#4100eb" fill-rule="evenodd" fill-opacity="1"/>
<polyline clip-path="url(#clip322)" style="stroke:#000000; stroke-linecap:butt; stroke-linejoin:round; stroke-width:4; stroke-opacity:1; fill:none" points="
  1375.05,646.329 1375.05,646.329 1440.28,646.329 1440.28,646.329 1375.05,646.329 
  "/>
<path clip-path="url(#clip322)" d="
M1456.59 649.404 L1456.59 646.329 L1521.81 646.329 L1521.81 649.404 L1456.59 649.404 L1456.59 649.404  Z
  " fill="#4100eb" fill-rule="evenodd" fill-opacity="1"/>
<polyline clip-path="url(#clip322)" style="stroke:#000000; stroke-linecap:butt; stroke-linejoin:round; stroke-width:4; stroke-opacity:1; fill:none" points="
  1456.59,649.404 1456.59,646.329 1521.81,646.329 1521.81,649.404 1456.59,649.404 
  "/>
<path clip-path="url(#clip322)" d="
M1538.12 646.329 L1538.12 646.329 L1603.35 646.329 L1603.35 646.329 L1538.12 646.329 L1538.12 646.329  Z
  " fill="#4100eb" fill-rule="evenodd" fill-opacity="1"/>
<polyline clip-path="url(#clip322)" style="stroke:#000000; stroke-linecap:butt; stroke-linejoin:round; stroke-width:4; stroke-opacity:1; fill:none" points="
  1538.12,646.329 1538.12,646.329 1603.35,646.329 1603.35,646.329 1538.12,646.329 
  "/>
<path clip-path="url(#clip322)" d="
M1619.66 648.262 L1619.66 646.329 L1684.88 646.329 L1684.88 648.262 L1619.66 648.262 L1619.66 648.262  Z
  " fill="#4100eb" fill-rule="evenodd" fill-opacity="1"/>
<polyline clip-path="url(#clip322)" style="stroke:#000000; stroke-linecap:butt; stroke-linejoin:round; stroke-width:4; stroke-opacity:1; fill:none" points="
  1619.66,648.262 1619.66,646.329 1684.88,646.329 1684.88,648.262 1619.66,648.262 
  "/>
<path clip-path="url(#clip322)" d="
M1701.19 646.329 L1701.19 646.329 L1766.42 646.329 L1766.42 646.329 L1701.19 646.329 L1701.19 646.329  Z
  " fill="#4100eb" fill-rule="evenodd" fill-opacity="1"/>
<polyline clip-path="url(#clip322)" style="stroke:#000000; stroke-linecap:butt; stroke-linejoin:round; stroke-width:4; stroke-opacity:1; fill:none" points="
  1701.19,646.329 1701.19,646.329 1766.42,646.329 1766.42,646.329 1701.19,646.329 
  "/>
<path clip-path="url(#clip322)" d="
M1782.72 647.699 L1782.72 646.329 L1847.95 646.329 L1847.95 647.699 L1782.72 647.699 L1782.72 647.699  Z
  " fill="#4100eb" fill-rule="evenodd" fill-opacity="1"/>
<polyline clip-path="url(#clip322)" style="stroke:#000000; stroke-linecap:butt; stroke-linejoin:round; stroke-width:4; stroke-opacity:1; fill:none" points="
  1782.72,647.699 1782.72,646.329 1847.95,646.329 1847.95,647.699 1782.72,647.699 
  "/>
</svg>
